<svg xmlns="http://www.w3.org/2000/svg" width="552.301" height="110.3" xml:space="preserve"><g fill="#302F33"><path d="M190.6 83.701h-15.8V43.6L157 72.9h-1.8l-17.8-29.2v40.1h-15.8v-69h15.8l18.7 30.6 18.7-30.6h15.8v68.901zM251 34.5v49.201h-14.8V79.1c-3.3 3.7-8.1 6-14.7 6-12.899 0-23.5-11.3-23.5-26s10.601-26 23.5-26c6.601 0 11.4 2.3 14.7 6v-4.6H251zm-14.8 24.6c0-7.4-4.9-12-11.7-12s-11.7 4.6-11.7 12c0 7.399 4.9 12 11.7 12s11.7-4.6 11.7-12zM307.6 53.5v30.201h-14.8V55.6c0-6.1-3.8-9-8.6-9-5.4 0-9.2 3.2-9.2 10.101V83.6h-14.8V34.5H275v4.6c2.7-3.6 7.601-6 14.101-6 9.999 0 18.499 7.1 18.499 20.4zM366.801 34.5v46.8c0 16.5-12.9 23.5-26 23.5-10.2 0-18.8-3.801-23.3-11.9l12.6-7.3c1.9 3.399 4.7 6.2 11.2 6.2 6.899 0 11.1-3.5 11.1-10.5v-4.5c-3.2 4-8 6.4-14.399 6.4-14 0-24.2-11.4-24.2-25 0-13.601 10.2-25 24.2-25 6.399 0 11.1 2.4 14.399 6.4v-5h14.4v-.1zM352.4 58.1c0-6.8-4.899-11.4-11.899-11.4s-11.9 4.6-11.9 11.4c0 6.8 4.9 11.399 11.9 11.399S352.4 64.9 352.4 58.1zM373.7 59.1c0-14.7 11.601-26 26.101-26s26.1 11.3 26.1 26-11.6 26-26.1 26-26.101-11.3-26.101-26zm37.4 0c0-7-4.9-11.6-11.3-11.6s-11.3 4.6-11.3 11.6 4.899 11.601 11.3 11.601c6.4 0 11.3-4.601 11.3-11.601zM430.301 59.1c0-14.7 11.6-26 26.1-26s26.101 11.3 26.101 26-11.601 26-26.101 26c-14.4 0-26.1-11.3-26.1-26zm37.5 0c0-7-4.9-11.6-11.3-11.6S445.2 52.1 445.2 59.1s4.9 11.601 11.301 11.601c6.3 0 11.3-4.601 11.3-11.601zM489.4 11.8h14.8v71.901h-14.8V11.8zM551.301 68.9c0 11.301-9.8 16.2-20.5 16.2-9.8 0-17.3-3.7-21.2-11.7l12.8-7.3c1.3 3.7 4 5.8 8.4 5.8 3.5 0 5.3-1.1 5.3-3.1 0-5.4-24.2-2.6-24.2-19.6 0-10.7 9.1-16.2 19.3-16.2 8 0 15.101 3.5 19.2 10.5l-12.6 6.8c-1.4-2.6-3.3-4.3-6.601-4.3-2.6 0-4.1 1-4.1 2.8-.099 5.7 24.201 1.9 24.201 20.1z"/></g><path fill="#FD5E69" d="M73.7 50.4c5 23.301-6.3 49.5-26.3 53.801C27.4 108.5 6.2 89.4 1.2 66.1c-5-23.3 6.3-49.5 26.3-53.8 20-4.4 41.2 14.8 46.2 38.1z"/><ellipse transform="rotate(-102.228 38.396 51.902)" opacity=".5" fill="#FFBE02" cx="38.396" cy="51.901" rx="38.299" ry="32.999"/><ellipse transform="scale(-1) rotate(77.778 58.892 -50.966)" fill="#FFBE02" cx="41.106" cy="47.5" rx="32.299" ry="27.799"/></svg>